<?xml version="1.0" standalone="no"?>
<!DOCTYPE svg PUBLIC "-//W3C//DTD SVG 20010904//EN"
 "http://www.w3.org/TR/2001/REC-SVG-20010904/DTD/svg10.dtd">
<svg version="1.0" xmlns="http://www.w3.org/2000/svg"
 width="36.000000pt" height="36.000000pt" viewBox="0 0 36.000000 36.000000"
 preserveAspectRatio="xMidYMid meet">

<g transform="translate(0.000000,36.000000) scale(0.100000,-0.100000)"
fill="#000000" stroke="none">
<path d="M102 339 c-122 -62 -133 -231 -21 -306 150 -99 337 61 259 222 -44
91 -151 129 -238 84z m168 -98 c0 -31 -34 -151 -43 -151 -6 0 -19 7 -29 16
-14 14 -20 14 -33 4 -13 -11 -15 -9 -15 13 0 17 13 37 43 62 l42 36 -51 -30
c-53 -32 -79 -37 -104 -21 -12 7 -11 10 5 16 11 5 52 20 90 35 75 30 95 34 95
20z"/>
</g>
</svg>
